# xmcd
#
# Track frame offsets:
#	150
#	17387
#	33792
#	48102
#	61133
#	80400
#	96969
#	114261
#	136592
#	154474
#	169002
#	184360
#	199792
#	215764
#	241293
#	259599
#	282050
#	296510
#	312449
#	327694
#
# Disc length: 4586 seconds
#
# Revision: 0
# Processed by: cddbd v1.5.2PL0 Copyright (c) Steve Scherf et al.
# Submitted via: EasyCDDAExtractor 11.5.3.1
#
DISCID=1611e814
DTITLE=Various Artist - NME The Album 2009 Disc 2
DYEAR=2009
DGENRE=
TTITLE0=Biffy Clyro - That Golden Rule
TTITLE1=Paramore - Ignorance
TTITLE2=Green Day - Know Your Enemy
TTITLE3=The Prodigy - Warrior's Dance
TTITLE4=Enter Shikari - No Sleep Tonight
TTITLE5=The Horrors - Who Can Say
TTITLE6=The View - 5 Rebeccas
TTITLE7=Ian Brown - Stellify
TTITLE8=Bombay Bicycle Club - The Hill
TTITLE9=Howling Bells - Into The Chaos
TTITLE10=Little Boots - Remedy
TTITLE11=Marmaduke Duke - Je Suis Un Funky Homme
TTITLE12=Marina and The Diamonds - Obsessions
TTITLE13=Animal Collective - My Girls
TTITLE14=Dananananaykroyd - Black Wax
TTITLE15=Golden Silvers - Please Venus
TTITLE16=Phoenix - 1901
TTITLE17=Manic Street Preachers - Peeled Apples
TTITLE18=Graham Coxon - Dead Bees
TTITLE19=Glasvegas - Flowers and Football Tops
EXTD=
EXTT0=
EXTT1=
EXTT2=
EXTT3=
EXTT4=
EXTT5=
EXTT6=
EXTT7=
EXTT8=
EXTT9=
EXTT10=
EXTT11=
EXTT12=
EXTT13=
EXTT14=
EXTT15=
EXTT16=
EXTT17=
EXTT18=
EXTT19=
PLAYORDER=
